Coordinates
version=1
nRows=9
nColumns=63
inDegrees=yes

Units are S.I. units (second, meters, Newtons, ...)
If the header above contains a line with 'inDegrees', this indicates whether rotational values are in degrees (yes) or radians (no).

endheader
time	pelvis_tilt	pelvis_list	pelvis_rotation	pelvis_tx	pelvis_ty	pelvis_tz	hip_flexion_r	hip_adduction_r	hip_rotation_r	knee_angle_r	knee_angle_r_beta	ankle_angle_r	subtalar_angle_r	mtp_angle_r	hip_flexion_l	hip_adduction_l	hip_rotation_l	knee_angle_l	knee_angle_l_beta	ankle_angle_l	subtalar_angle_l	mtp_angle_l	L5_S1_Flex_Ext	L5_S1_Lat_Bending	L5_S1_axial_rotation	L4_L5_Flex_Ext	L4_L5_Lat_Bending	L4_L5_axial_rotation	L3_L4_Flex_Ext	L3_L4_Lat_Bending	L3_L4_axial_rotation	L2_L3_Flex_Ext	L2_L3_Lat_Bending	L2_L3_axial_rotation	L1_L2_Flex_Ext	L1_L2_Lat_Bending	L1_L2_axial_rotation	L1_T12_Flex_Ext	L1_T12_Lat_Bending	L1_T12_axial_rotation	Abs_r3	Abs_r2	Abs_r1	Abs_t1	Abs_t2	neck_flexion	neck_bending	neck_rotation	arm_flex_r	arm_add_r	arm_rot_r	elbow_flex_r	pro_sup_r	wrist_flex_r	wrist_dev_r	arm_flex_l	arm_add_l	arm_rot_l	elbow_flex_l	pro_sup_l	wrist_flex_l	wrist_dev_l
      5.06666667	     -1.22336264	     -7.91482590	     93.60056580	      0.23863106	      0.83192970	      0.72420383	      8.06021664	     -2.31660570	    -15.32269728	     13.01785602	      0.22720445	     25.64081922	      0.09207246	      0.00000000	      9.96251496	     -2.43923444	      8.03942380	     14.62124309	      0.25518883	     23.81027434	     -5.23929630	      0.00000000	     -0.89633964	     -0.53463827	     -0.83991627	     -1.66459234	     -0.71106890	     -0.89241103	     -1.47259639	     -1.29991950	     -0.89241103	     -1.02442657	     -1.29991950	     -0.73492673	     -0.83234099	     -1.09023437	     -0.68243197	     -0.51216847	     -0.82815469	     -0.62993720	     -6.40246441	     -6.04793508	     -4.67136230	      0.00000000	      0.00000000	     -9.93945003	      1.45576161	      9.28605977	     71.33588934	    -16.52972538	     19.24756498	    126.48257895	     87.79619224	     23.96360879	     33.31243907	     -4.13510867	    -13.43995482	     32.15803167	     43.94589900	     88.53356924	    -15.81689525	     12.25201278
      5.08333333	     -1.15026241	     -7.90432386	     93.28064240	      0.23890319	      0.83202217	      0.72388848	      8.12384710	     -2.21883075	    -15.06037502	     13.08131464	      0.22831201	     25.52897593	      0.12320204	      0.00000000	      9.85285106	     -2.62057378	      7.28556090	     14.56654142	      0.25423411	     24.01759758	     -4.60023826	      0.00000000	     -0.89955380	     -0.52515857	     -0.80180857	     -1.67056136	     -0.69846090	     -0.85192160	     -1.47787693	     -1.27687055	     -0.85192160	     -1.02810003	     -1.27687055	     -0.70158250	     -0.83532566	     -1.07090336	     -0.65146946	     -0.51400504	     -0.81347063	     -0.60135642	     -6.42542281	     -5.94069880	     -4.45941870	      0.00000000	      0.00000000	     -9.82578695	      1.19759997	      9.16050489	     71.41711609	    -16.45548046	     19.46904995	    126.44173460	     87.68116472	     23.09166729	     33.33767560	     -3.88955796	    -13.41488855	     32.81292585	     43.58963425	     88.43927917	    -16.27015408	     11.94527230
      5.10000000	     -1.10561918	     -7.92962396	     93.13755942	      0.23904046	      0.83197304	      0.72359222	      8.18888756	     -2.12472099	    -14.55086983	     13.10200312	      0.22867309	     25.46513909	     -0.31209564	      0.00000000	      9.83452729	     -2.69997712	      7.08042145	     14.57786156	      0.25443168	     24.12607348	     -4.43205057	      0.00000000	     -0.89206326	     -0.52383613	     -0.81174115	     -1.65665069	     -0.69670205	     -0.86247497	     -1.46557073	     -1.27365517	     -0.86247497	     -1.01953910	     -1.27365517	     -0.71027351	     -0.82836995	     -1.06820664	     -0.65953969	     -0.50972495	     -0.81142216	     -0.60880586	     -6.37191868	     -5.92573907	     -4.51466077	      0.00000000	      0.00000000	     -9.85777341	      0.96452427	      8.84506549	     71.41777788	    -16.29392750	     19.51907688	    126.36060409	     88.02251463	     23.04004651	     33.14321583	     -3.80895626	    -13.47274618	     32.98580179	     43.65998565	     88.36252143	    -16.05900375	     12.69966858
      5.11666667	     -0.98129597	     -7.87539464	     93.04115439	      0.23900243	      0.83200321	      0.72342532	      8.15500573	     -1.97234849	    -14.30704054	     13.08575351	      0.22838948	     25.41313451	     -0.39275753	      0.00000000	      9.74976303	     -2.83917087	      6.99477381	     14.59050185	      0.25465230	     24.20937794	     -4.46088818	      0.00000000	     -0.89685083	     -0.50985647	     -0.84434694	     -1.66554168	     -0.67810910	     -0.89711862	     -1.47343624	     -1.23966502	     -0.89711862	     -1.02501082	     -1.23966502	     -0.73880357	     -0.83281568	     -1.03969931	     -0.68603189	     -0.51246057	     -0.78976767	     -0.63326021	     -6.40611582	     -5.76759835	     -4.69600438	      0.00000000	      0.00000000	     -9.96071680	      0.81332690	      8.97423166	     71.49873530	    -16.13179648	     19.75899004	    126.18326602	     88.02125705	     22.71094748	     33.05689103	     -3.78838022	    -13.42489981	     33.06731148	     43.60445030	     88.25147964	    -16.31377702	     12.64907103
      5.13333333	     -0.84898165	     -7.86396440	     93.26451544	      0.23844224	      0.83192711	      0.72368873	      8.18310007	     -1.87752399	    -14.37452629	     13.15500121	      0.22959808	     25.47232028	     -0.45591056	      0.00000000	      9.81008850	     -2.87773766	      7.55070100	     14.66025148	      0.25586966	     24.16534472	     -4.98629357	      0.00000000	     -0.90128279	     -0.49059598	     -0.95031253	     -1.67377226	     -0.65249265	     -1.00970706	     -1.48071749	     -1.19283506	     -1.00970706	     -1.03007610	     -1.19283506	     -0.83152346	     -0.83693119	     -1.00042332	     -0.77212893	     -0.51499298	     -0.75993317	     -0.71273440	     -6.43777281	     -5.54971983	     -5.28535320	      0.00000000	      0.00000000	    -10.02970896	      0.54128258	      9.33174692	     71.63282027	    -15.80347551	     19.96959290	    125.92569785	     87.99965070	     22.77853315	     32.97587397	     -3.84079018	    -13.31588094	     32.78183503	     43.63246934	     88.18735985	    -16.23528833	     12.84665241
      5.15000000	     -0.76819157	     -7.82325087	     93.28689582	      0.23834485	      0.83192698	      0.72397620	      8.17660155	     -1.79536638	    -14.30288687	     13.17076271	      0.22987317	     25.57259369	     -0.30851744	      0.00000000	      9.79646275	     -2.95346540	      7.57574080	     14.68337629	      0.25627326	     24.20236171	     -4.95840754	      0.00000000	     -0.90937123	     -0.48227466	     -0.98703236	     -1.68879332	     -0.64142530	     -1.04872188	     -1.49400600	     -1.17260260	     -1.04872188	     -1.03932038	     -1.17260260	     -0.86365332	     -0.84444213	     -0.98345448	     -0.80196379	     -0.51961472	     -0.74704345	     -0.74027427	     -6.49554778	     -5.45558739	     -5.48957788	      0.00000000	      0.00000000	    -10.12163467	      0.42971140	      9.43905586	     71.67301931	    -15.71698086	     20.08327608	    125.82975043	     87.91965505	     22.72421115	     32.88223295	     -3.80733400	    -13.29184321	     32.75450346	     43.66018944	     88.10170329	    -16.32285027	     12.85657477
      5.16666667	     -0.77459654	     -7.80954320	     93.24720707	      0.23847168	      0.83183292	      0.72439830	      8.24036110	     -1.75893813	    -13.81157534	     13.23367212	      0.23097115	     25.66012831	     -0.67060232	      0.00000000	      9.81970072	     -2.96216193	      7.44111942	     14.72507950	      0.25700112	     24.25403715	     -4.86920817	      0.00000000	     -0.91514831	     -0.48449759	     -1.01521551	     -1.69952192	     -0.64438180	     -1.07866648	     -1.50349716	     -1.17800744	     -1.07866648	     -1.04592300	     -1.17800744	     -0.88831357	     -0.84980672	     -0.98798749	     -0.82486260	     -0.52291574	     -0.75048677	     -0.76141163	     -6.53681285	     -5.48073365	     -5.64632410	      0.00000000	      0.00000000	    -10.16764378	      0.27387813	      9.70406737	     71.71761998	    -15.45843812	     19.99069819	    125.69358155	     87.84057493	     23.63174941	     32.76789068	     -3.93020140	    -13.28099191	     32.21633204	     43.93237224	     88.14422198	    -15.92941027	     13.37198093
      5.18333333	     -0.74969860	     -7.81789923	     93.46040200	      0.23803427	      0.83172978	      0.72466486	      8.24777986	     -1.78342805	    -14.05652893	     13.24827043	      0.23122594	     25.89704148	     -0.24752004	      0.00000000	      9.86566109	     -2.83720104	      8.45584499	     14.72145506	      0.25693786	     23.95062326	     -6.13012229	      0.00000000	     -0.91928808	     -0.47947895	     -1.05970290	     -1.70720990	     -0.63770700	     -1.12593433	     -1.51029839	     -1.16580511	     -1.12593433	     -1.05065435	     -1.16580511	     -0.92724004	     -0.85365091	     -0.97775347	     -0.86100861	     -0.52528121	     -0.74271289	     -0.79477717	     -6.56638284	     -5.42396175	     -5.89374962	      0.00000000	      0.00000000	    -10.19633240	      0.13495646	      9.85146036	     71.78335057	    -15.47822394	     20.00564656	    125.75763969	     87.72243686	     23.96185992	     32.69536640	     -3.99096829	    -13.20340618	     32.03103651	     43.94282767	     88.10958212	    -16.11579064	     12.95402374
      5.20000000	     -0.84182471	     -7.84158516	     93.38696920	      0.23819368	      0.83166004	      0.72471582	      8.28343046	     -1.91259870	    -14.27322644	     13.28118533	      0.23180041	     26.24528326	      0.61565272	      0.00000000	      9.89033634	     -2.74532324	      8.37946480	     14.71927935	      0.25689989	     23.89488970	     -6.20351909	      0.00000000	     -0.92031202	     -0.49188841	     -1.06356773	     -1.70911145	     -0.65421159	     -1.13004071	     -1.51198061	     -1.19597749	     -1.13004071	     -1.05182460	     -1.19597749	     -0.93062176	     -0.85460174	     -1.00305886	     -0.86414878	     -0.52586629	     -0.76193515	     -0.79767579	     -6.57369671	     -5.56434013	     -5.91524462	      0.00000000	      0.00000000	    -10.21743197	     -0.00573069	     10.00706094	     71.82772962	    -15.34172769	     19.94116612	    125.82060083	     87.68687709	     24.52912092	     32.57289619	     -4.12418005	    -13.23421597	     31.67659631	     44.10931052	     88.14140205	    -15.89532411	     13.02968316
